<?xml version="1.0" standalone="no"?>
<!DOCTYPE svg PUBLIC "-//W3C//DTD SVG 20010904//EN"
 "http://www.w3.org/TR/2001/REC-SVG-20010904/DTD/svg10.dtd">
<svg version="1.0" xmlns="http://www.w3.org/2000/svg"
 width="97.000000pt" height="97.000000pt" viewBox="0 0 97.000000 97.000000"
 preserveAspectRatio="xMidYMid meet">
<metadata>
Created by potrace 1.11, written by Peter Selinger 2001-2013
</metadata>
<g transform="translate(0.000000,97.000000) scale(0.100000,-0.100000)"
fill="#000000" stroke="none">
<path d="M320 955 c-10 -12 -10 -19 -2 -27 7 -7 12 -17 12 -23 0 -14 -41 -17
-57 -3 -16 13 -25 6 -28 -24 -1 -13 -3 -26 -4 -31 0 -4 -16 -5 -35 -3 -70 9
-135 -52 -127 -120 1 -16 -3 -22 -15 -20 -11 0 -24 -11 -32 -26 -7 -16 -17
-28 -23 -28 -16 0 -10 -26 11 -45 16 -14 17 -21 8 -39 -18 -33 -11 -151 12
-197 11 -21 16 -39 10 -39 -5 0 -10 -7 -10 -16 0 -11 5 -14 16 -10 9 3 27 -3
40 -13 27 -21 72 -18 54 4 -8 9 -5 14 12 19 32 8 68 7 69 -1 7 -40 5 -49 -12
-50 -13 -1 -19 5 -19 20 0 36 -19 5 -22 -35 -2 -27 -9 -40 -25 -47 -27 -12
-32 -56 -8 -65 12 -4 14 0 9 19 -6 23 -4 25 23 21 17 -1 35 -6 41 -10 6 -3 13
-2 17 4 11 17 24 11 31 -14 8 -33 37 -58 69 -60 14 0 28 -8 30 -17 3 -10 29
-23 64 -33 51 -14 65 -15 112 -3 34 9 58 21 64 34 6 11 15 18 21 16 21 -7 64
17 76 42 12 26 25 33 82 40 23 3 35 1 33 -6 -1 -6 4 -14 11 -16 24 -9 12 37
-13 49 -19 9 -22 14 -14 25 9 10 8 13 -3 13 -11 0 -14 7 -11 24 3 13 0 27 -6
30 -7 5 -11 -1 -11 -14 0 -15 -5 -20 -17 -18 -25 5 -24 52 0 56 10 2 26 0 35
-4 9 -4 20 -8 24 -8 14 -2 21 -16 7 -16 -12 0 -12 -2 0 -9 16 -10 46 -3 61 14
6 7 20 11 30 8 21 -5 28 11 10 22 -6 4 -2 21 10 44 17 34 21 68 20 159 0 13
-4 32 -10 42 -8 16 -6 22 10 32 20 13 28 38 11 38 -5 0 -15 16 -22 35 -10 27
-17 34 -31 29 -15 -5 -18 0 -16 25 5 62 -61 123 -127 115 -32 -3 -48 11 -39
37 3 11 -3 18 -16 22 -11 3 -20 1 -20 -4 0 -10 -45 -8 -55 3 -3 3 1 10 9 17
18 15 9 51 -14 51 -23 0 -42 -50 -28 -73 5 -9 6 -17 3 -17 -3 0 3 -10 15 -22
11 -12 20 -28 20 -35 0 -8 4 -11 10 -8 6 3 10 -2 10 -13 0 -24 -37 -41 -70
-32 -17 4 -24 13 -23 27 3 27 -34 43 -100 43 -60 -1 -85 -16 -81 -48 2 -12 1
-22 -4 -23 -4 0 -15 -2 -24 -4 -9 -2 -26 6 -38 17 -20 19 -20 22 -6 30 9 5 16
13 16 19 0 5 9 19 19 30 22 23 33 69 18 69 -6 0 -7 3 -4 7 7 7 -11 33 -23 33
-4 0 -13 -7 -20 -15z"/>
</g>
</svg>
